# xmcd
# Copyright (C) 1995-1998 Ti Kan
#
# Track frame offsets:
#       150
#       20900
#       38157
#       72165
#       94272
#       108355
#       140297
#       158177
#       180132
#       195897
#       218614
#       240891
#       261516
#       277679
#
# Disc length: 4383 seconds
#
# Revision: 0
# Processed by: cddbd v1.5.2PL0 Copyright (c) Steve Scherf et al.
# Submitted via: CD-Import v1.0
#
DISCID=b1111d0e
DTITLE=Bob Dylan - Blonde On Blonde
DYEAR=1900
DGENRE=
TTITLE0=Rainy Day Women #12 and 35
TTITLE1=Pledging My Time
TTITLE2=Visions Of Johanna
TTITLE3=	one Of Us Must Know (Sooner Or Later)
TTITLE4=I Want You
TTITLE5=Stuck Inside Of Mobile With The Memphis Blues Again
TTITLE6=Leopard-Skin Pill-Box Hat
TTITLE7=Just Like A Woman
TTITLE8=Most Likely You Go Your Way And I'll Go Mine
TTITLE9=Temporary Like Achilles
TTITLE10=Absolutely Sweet Marie
TTITLE11=4th Time Around
TTITLE12=Obviously 5 Believers
TTITLE13=Sad Eyed Lady Of The Lowlands
EXTD=
EXTT0=
EXTT1=
EXTT2=
EXTT3=
EXTT4=
EXTT5=
EXTT6=
EXTT7=
EXTT8=
EXTT9=
EXTT10=
EXTT11=
EXTT12=
EXTT13=
PLAYORDER=
